<svg width="341" height="76" viewBox="0 0 341 76" fill="none" xmlns="http://www.w3.org/2000/svg">
<path d="M99.88 36.92C99.9867 37.2133 99.9733 37.4667 99.84 37.68C99.7333 37.8933 99.5467 38 99.28 38H93.4C92.9467 38 92.6533 37.76 92.52 37.28L88.2 26.08C88.04 25.7067 87.6667 25.52 87.08 25.52H83.28C83.0933 25.52 82.96 25.5733 82.88 25.68C82.8267 25.7867 82.8 25.88 82.8 25.96V37.04C82.8 37.68 82.44 38 81.72 38H76.64C76.32 38 76.0933 37.9333 75.96 37.8C75.8533 37.6667 75.8 37.4667 75.8 37.2V9.08C75.8 8.57333 76.0133 8.32 76.44 8.32H88.92C92.4933 8.32 95.2667 9.02667 97.24 10.44C99.24 11.8533 100.24 13.8667 100.24 16.48C100.24 17.84 99.9867 19.0533 99.48 20.12C98.9733 21.1867 98.3067 22.08 97.48 22.8C96.6533 23.4933 95.7467 24.0133 94.76 24.36C94.52 24.44 94.4667 24.64 94.6 24.96L99.88 36.92ZM88.28 20.8C89.8 20.8 90.96 20.48 91.76 19.84C92.5867 19.1733 93 18.2133 93 16.96C93 15.6533 92.5867 14.6667 91.76 14C90.9333 13.3333 89.84 13 88.48 13H83.56C83.0533 13 82.8 13.2267 82.8 13.68V20.12C82.8 20.5733 82.9867 20.8 83.36 20.8H88.28ZM104.667 9.08C104.667 8.57333 104.881 8.32 105.307 8.32H125.467C125.867 8.32 126.067 8.54667 126.067 9L126.027 12.6C126.027 13.16 125.747 13.44 125.187 13.44H112.427C111.921 13.44 111.667 13.6533 111.667 14.08V19.88C111.667 20.3333 111.867 20.56 112.267 20.56H120.747C121.201 20.56 121.427 20.7733 121.427 21.2V25.04C121.427 25.2 121.374 25.3333 121.267 25.44C121.187 25.5467 121.027 25.6 120.787 25.6H112.227C111.854 25.6 111.667 25.76 111.667 26.08V32.36C111.667 32.7067 111.814 32.88 112.107 32.88H125.787C126.267 32.88 126.507 33.08 126.507 33.48V37.28C126.507 37.4933 126.441 37.6667 126.307 37.8C126.201 37.9333 126.001 38 125.707 38H105.547C104.961 38 104.667 37.72 104.667 37.16V9.08ZM147.879 15.32C147.292 14.68 146.559 14.1067 145.679 13.6C144.826 13.0933 143.599 12.84 141.999 12.84C140.319 12.84 139.066 13.1467 138.239 13.76C137.412 14.3467 136.999 15.1067 136.999 16.04C136.999 16.36 137.079 16.7067 137.239 17.08C137.399 17.4533 137.719 17.8133 138.199 18.16C138.679 18.5067 139.359 18.8133 140.239 19.08L146.559 20.88C149.012 21.5467 150.799 22.6267 151.919 24.12C153.039 25.5867 153.599 27.2933 153.599 29.24C153.599 31.1067 153.119 32.7333 152.159 34.12C151.199 35.48 149.826 36.5333 148.039 37.28C146.252 38.0267 144.132 38.4 141.679 38.4C139.866 38.4 138.159 38.2 136.559 37.8C134.986 37.3733 133.586 36.7733 132.359 36C131.159 35.2 130.212 34.28 129.519 33.24C129.386 32.9733 129.332 32.76 129.359 32.6C129.386 32.4133 129.519 32.2267 129.759 32.04L132.839 29.92C133.159 29.7333 133.412 29.6533 133.599 29.68C133.812 29.7067 133.999 29.8133 134.159 30C134.799 30.8 135.426 31.4667 136.039 32C136.679 32.5333 137.412 32.92 138.239 33.16C139.066 33.4 140.052 33.52 141.199 33.52C142.932 33.52 144.319 33.2533 145.359 32.72C146.399 32.16 146.919 31.3067 146.919 30.16C146.919 29.7067 146.812 29.2933 146.599 28.92C146.386 28.52 146.039 28.1733 145.559 27.88C145.106 27.56 144.452 27.2667 143.599 27L137.559 25.28C135.986 24.8267 134.666 24.1867 133.599 23.36C132.532 22.5333 131.719 21.56 131.159 20.44C130.626 19.32 130.359 18.1467 130.359 16.92C130.359 15.2133 130.826 13.68 131.759 12.32C132.719 10.96 134.052 9.89333 135.759 9.12C137.492 8.32 139.506 7.92 141.799 7.92C143.319 7.92 144.732 8.09333 146.039 8.44C147.372 8.78667 148.572 9.26667 149.639 9.88C150.706 10.4933 151.572 11.24 152.239 12.12C152.346 12.2533 152.426 12.4133 152.479 12.6C152.532 12.76 152.452 12.9333 152.239 13.12L148.879 15.6C148.719 15.7067 148.572 15.7467 148.439 15.72C148.306 15.6667 148.119 15.5333 147.879 15.32ZM182.189 17.56C182.189 19.5333 181.723 21.2 180.789 22.56C179.856 23.8933 178.576 24.9067 176.949 25.6C175.349 26.2933 173.483 26.64 171.349 26.64H165.349C165.056 26.64 164.909 26.7867 164.909 27.08V37.08C164.909 37.6933 164.563 38 163.869 38H158.749C158.429 38 158.203 37.9333 158.069 37.8C157.963 37.6667 157.909 37.4667 157.909 37.2V9.08C157.909 8.57333 158.123 8.32 158.549 8.32H170.549C172.683 8.32 174.629 8.65333 176.389 9.32C178.176 9.98667 179.589 11 180.629 12.36C181.669 13.72 182.189 15.4533 182.189 17.56ZM174.989 17.44C174.989 16.5067 174.789 15.7467 174.389 15.16C173.989 14.5467 173.416 14.0933 172.669 13.8C171.923 13.5067 171.069 13.36 170.109 13.36H165.669C165.163 13.36 164.909 13.5867 164.909 14.04V20.88C164.909 21.3867 165.096 21.64 165.469 21.64H170.389C171.803 21.64 172.923 21.2667 173.749 20.52C174.576 19.7733 174.989 18.7467 174.989 17.44ZM199.223 38.4C196.396 38.4 193.956 37.8 191.903 36.6C189.85 35.3733 188.263 33.6267 187.143 31.36C186.05 29.0933 185.503 26.4 185.503 23.28C185.503 20.1067 186.063 17.3733 187.183 15.08C188.33 12.7867 189.93 11.0267 191.983 9.8C194.036 8.54667 196.45 7.92 199.223 7.92C201.996 7.92 204.396 8.54667 206.423 9.8C208.476 11.0267 210.063 12.7867 211.183 15.08C212.303 17.3467 212.863 20.0667 212.863 23.24C212.863 26.36 212.303 29.0533 211.183 31.32C210.09 33.5867 208.516 35.3333 206.463 36.56C204.41 37.7867 201.996 38.4 199.223 38.4ZM199.223 33.48C201.41 33.48 203.01 32.6933 204.023 31.12C205.036 29.52 205.543 26.92 205.543 23.32C205.543 19.64 205.023 16.9733 203.983 15.32C202.97 13.64 201.383 12.8 199.223 12.8C197.036 12.8 195.423 13.64 194.383 15.32C193.343 17 192.823 19.6667 192.823 23.32C192.823 26.8933 193.33 29.48 194.343 31.08C195.383 32.68 197.01 33.48 199.223 33.48ZM241.72 8.32C242.066 8.32 242.24 8.52 242.24 8.92V37.36C242.24 37.5467 242.173 37.7067 242.04 37.84C241.906 37.9467 241.72 38 241.48 38H237.44C237.226 38 237.053 37.9733 236.92 37.92C236.786 37.8667 236.626 37.7333 236.44 37.52L223.68 19.6C223.573 19.4667 223.466 19.4133 223.36 19.44C223.28 19.4667 223.24 19.5467 223.24 19.68V37.28C223.266 37.76 223 38 222.44 38H218.28C217.746 38 217.48 37.7733 217.48 37.32V9.08C217.48 8.57333 217.72 8.32 218.2 8.32H223.04C223.333 8.32 223.546 8.36 223.68 8.44C223.84 8.52 224.013 8.68 224.2 8.92L235.96 25.68C236.12 25.8933 236.253 25.9867 236.36 25.96C236.493 25.9333 236.56 25.8 236.56 25.56V9.04C236.56 8.56 236.8 8.32 237.28 8.32H241.72ZM264.871 15.32C264.285 14.68 263.551 14.1067 262.671 13.6C261.818 13.0933 260.591 12.84 258.991 12.84C257.311 12.84 256.058 13.1467 255.231 13.76C254.405 14.3467 253.991 15.1067 253.991 16.04C253.991 16.36 254.071 16.7067 254.231 17.08C254.391 17.4533 254.711 17.8133 255.191 18.16C255.671 18.5067 256.351 18.8133 257.231 19.08L263.551 20.88C266.005 21.5467 267.791 22.6267 268.911 24.12C270.031 25.5867 270.591 27.2933 270.591 29.24C270.591 31.1067 270.111 32.7333 269.151 34.12C268.191 35.48 266.818 36.5333 265.031 37.28C263.245 38.0267 261.125 38.4 258.671 38.4C256.858 38.4 255.151 38.2 253.551 37.8C251.978 37.3733 250.578 36.7733 249.351 36C248.151 35.2 247.205 34.28 246.511 33.24C246.378 32.9733 246.325 32.76 246.351 32.6C246.378 32.4133 246.511 32.2267 246.751 32.04L249.831 29.92C250.151 29.7333 250.405 29.6533 250.591 29.68C250.805 29.7067 250.991 29.8133 251.151 30C251.791 30.8 252.418 31.4667 253.031 32C253.671 32.5333 254.405 32.92 255.231 33.16C256.058 33.4 257.045 33.52 258.191 33.52C259.925 33.52 261.311 33.2533 262.351 32.72C263.391 32.16 263.911 31.3067 263.911 30.16C263.911 29.7067 263.805 29.2933 263.591 28.92C263.378 28.52 263.031 28.1733 262.551 27.88C262.098 27.56 261.445 27.2667 260.591 27L254.551 25.28C252.978 24.8267 251.658 24.1867 250.591 23.36C249.525 22.5333 248.711 21.56 248.151 20.44C247.618 19.32 247.351 18.1467 247.351 16.92C247.351 15.2133 247.818 13.68 248.751 12.32C249.711 10.96 251.045 9.89333 252.751 9.12C254.485 8.32 256.498 7.92 258.791 7.92C260.311 7.92 261.725 8.09333 263.031 8.44C264.365 8.78667 265.565 9.26667 266.631 9.88C267.698 10.4933 268.565 11.24 269.231 12.12C269.338 12.2533 269.418 12.4133 269.471 12.6C269.525 12.76 269.445 12.9333 269.231 13.12L265.871 15.6C265.711 15.7067 265.565 15.7467 265.431 15.72C265.298 15.6667 265.111 15.5333 264.871 15.32ZM281.262 8.32C281.688 8.32 281.902 8.56 281.902 9.04V37.04C281.902 37.3867 281.808 37.64 281.622 37.8C281.462 37.9333 281.195 38 280.822 38H275.782C275.435 38 275.195 37.9333 275.062 37.8C274.955 37.6667 274.902 37.4533 274.902 37.16V9.08C274.902 8.57333 275.115 8.32 275.542 8.32H281.262ZM312.119 8.32C312.385 8.32 312.572 8.41333 312.679 8.6C312.812 8.78667 312.825 9 312.719 9.24L303.119 37.16C302.959 37.72 302.545 38 301.879 38H296.879C296.185 38 295.759 37.72 295.599 37.16L286.079 9.28C285.999 9.01333 286.012 8.78667 286.119 8.6C286.252 8.41333 286.452 8.32 286.719 8.32H292.479C292.905 8.32 293.185 8.54667 293.319 9L299.879 29.24C300.039 29.6667 300.199 29.6533 300.359 29.2L306.719 9C306.825 8.54667 307.119 8.32 307.599 8.32H312.119ZM316.855 9.08C316.855 8.57333 317.068 8.32 317.495 8.32H337.655C338.055 8.32 338.255 8.54667 338.255 9L338.215 12.6C338.215 13.16 337.935 13.44 337.375 13.44H324.615C324.108 13.44 323.855 13.6533 323.855 14.08V19.88C323.855 20.3333 324.055 20.56 324.455 20.56H332.935C333.388 20.56 333.615 20.7733 333.615 21.2V25.04C333.615 25.2 333.561 25.3333 333.455 25.44C333.375 25.5467 333.215 25.6 332.975 25.6H324.415C324.041 25.6 323.855 25.76 323.855 26.08V32.36C323.855 32.7067 324.001 32.88 324.295 32.88H337.975C338.455 32.88 338.695 33.08 338.695 33.48V37.28C338.695 37.4933 338.628 37.6667 338.495 37.8C338.388 37.9333 338.188 38 337.895 38H317.735C317.148 38 316.855 37.72 316.855 37.16V9.08Z" fill="#015EEA"/>
<path d="M76.379 68C76.255 68 76.162 67.969 76.1 67.907C76.038 67.845 76.007 67.752 76.007 67.628V45.432C76.007 45.2873 76.038 45.184 76.1 45.122C76.1827 45.0393 76.286 44.998 76.41 44.998H83.571C86.3197 44.998 88.438 45.5043 89.926 46.517C91.4347 47.5297 92.189 49.0073 92.189 50.95C92.189 52.19 91.8583 53.244 91.197 54.112C90.5563 54.9593 89.5333 55.631 88.128 56.127C88.0453 56.1477 88.004 56.189 88.004 56.251C88.004 56.313 88.0453 56.3543 88.128 56.375C89.616 56.747 90.7527 57.3877 91.538 58.297C92.344 59.1857 92.747 60.374 92.747 61.862C92.747 63.9287 91.972 65.4683 90.422 66.481C88.872 67.4937 86.6607 68 83.788 68H76.379ZM83.633 65.83C85.6583 65.83 87.167 65.5097 88.159 64.869C89.151 64.2077 89.647 63.1743 89.647 61.769C89.647 60.7563 89.399 59.94 88.903 59.32C88.407 58.6793 87.7353 58.2143 86.888 57.925C86.0407 57.6357 85.0693 57.491 83.974 57.491H79.417C79.1277 57.491 78.983 57.615 78.983 57.863V65.396C78.983 65.6853 79.076 65.83 79.262 65.83H83.633ZM83.974 55.259C84.594 55.259 85.214 55.197 85.834 55.073C86.454 54.949 87.012 54.7423 87.508 54.453C88.0247 54.143 88.4277 53.74 88.717 53.244C89.027 52.7273 89.182 52.0763 89.182 51.291C89.182 49.8857 88.6653 48.8523 87.632 48.191C86.6193 47.509 85.2657 47.168 83.571 47.168H79.386C79.1173 47.168 78.983 47.292 78.983 47.54V54.856C78.983 55.1247 79.076 55.259 79.262 55.259H83.974ZM99.6978 67.473C99.6978 67.6797 99.6564 67.8243 99.5738 67.907C99.4911 67.969 99.3464 68 99.1398 68H97.5278C97.2178 68 97.0628 67.8553 97.0628 67.566L97.0938 45.432C97.0938 45.1427 97.2178 44.998 97.4658 44.998H99.3258C99.5738 44.998 99.6978 45.1323 99.6978 45.401V67.473ZM111.362 68.31C109.812 68.31 108.437 67.9587 107.239 67.256C106.061 66.5327 105.141 65.5407 104.48 64.28C103.839 62.9987 103.519 61.5313 103.519 59.878C103.519 58.1627 103.849 56.6643 104.511 55.383C105.193 54.081 106.123 53.0683 107.301 52.345C108.479 51.6217 109.843 51.26 111.393 51.26C112.963 51.26 114.327 51.632 115.485 52.376C116.663 53.0993 117.572 54.112 118.213 55.414C118.874 56.6953 119.205 58.173 119.205 59.847C119.205 61.5003 118.874 62.9677 118.213 64.249C117.551 65.5097 116.632 66.5017 115.454 67.225C114.296 67.9483 112.932 68.31 111.362 68.31ZM111.424 66.357C112.498 66.357 113.418 66.0987 114.183 65.582C114.947 65.0447 115.526 64.2903 115.919 63.319C116.332 62.327 116.539 61.149 116.539 59.785C116.539 58.421 116.332 57.2533 115.919 56.282C115.505 55.29 114.916 54.5253 114.152 53.988C113.387 53.4507 112.467 53.182 111.393 53.182C110.339 53.182 109.419 53.4507 108.634 53.988C107.848 54.5253 107.239 55.29 106.805 56.282C106.391 57.2533 106.185 58.421 106.185 59.785C106.185 61.1283 106.391 62.296 106.805 63.288C107.239 64.28 107.848 65.0447 108.634 65.582C109.419 66.0987 110.349 66.357 111.424 66.357ZM129.857 51.26C130.932 51.26 131.872 51.4357 132.678 51.787C133.505 52.1177 134.208 52.5827 134.786 53.182C135.386 53.7607 135.882 54.4013 136.274 55.104C136.398 55.352 136.347 55.507 136.119 55.569L134.414 55.972C134.27 56.034 134.135 55.972 134.011 55.786C133.598 55.1867 133.185 54.701 132.771 54.329C132.379 53.957 131.955 53.678 131.5 53.492C131.046 53.2853 130.55 53.182 130.012 53.182C128.958 53.182 128.028 53.4507 127.222 53.988C126.437 54.5047 125.827 55.259 125.393 56.251C124.959 57.243 124.742 58.421 124.742 59.785C124.742 61.1697 124.959 62.358 125.393 63.35C125.848 64.342 126.468 65.0963 127.253 65.613C128.059 66.1297 129 66.388 130.074 66.388C131.066 66.388 131.924 66.14 132.647 65.644C133.371 65.148 134.032 64.4247 134.631 63.474C134.693 63.3707 134.745 63.319 134.786 63.319C134.848 63.2983 134.931 63.3087 135.034 63.35L136.367 63.846C136.512 63.908 136.553 64.0423 136.491 64.249C136.181 64.7863 135.82 65.303 135.406 65.799C134.993 66.295 134.507 66.729 133.949 67.101C133.412 67.473 132.802 67.7727 132.12 68C131.438 68.2067 130.684 68.31 129.857 68.31C128.328 68.31 126.974 67.9587 125.796 67.256C124.639 66.5327 123.73 65.5407 123.068 64.28C122.407 62.9987 122.076 61.521 122.076 59.847C122.076 58.1523 122.407 56.6643 123.068 55.383C123.75 54.1017 124.67 53.0993 125.827 52.376C127.005 51.632 128.349 51.26 129.857 51.26ZM154.037 67.504C154.12 67.628 154.14 67.7417 154.099 67.845C154.058 67.9483 153.944 68 153.758 68H151.588C151.464 68 151.35 67.969 151.247 67.907C151.164 67.845 151.092 67.752 151.03 67.628L146.349 59.599C146.308 59.5163 146.256 59.4647 146.194 59.444C146.153 59.4027 146.08 59.4337 145.977 59.537L142.691 62.854C142.608 62.9367 142.546 63.0297 142.505 63.133C142.484 63.2157 142.474 63.3293 142.474 63.474V67.473C142.474 67.6797 142.433 67.8243 142.35 67.907C142.288 67.969 142.143 68 141.916 68H140.335C140.128 68 139.994 67.969 139.932 67.907C139.891 67.845 139.87 67.7313 139.87 67.566V45.432C139.87 45.1427 139.984 44.998 140.211 44.998H142.102C142.35 44.998 142.474 45.1323 142.474 45.401V59.785C142.474 59.9503 142.495 60.0537 142.536 60.095C142.577 60.1157 142.66 60.0537 142.784 59.909L150.441 51.942C150.668 51.694 150.885 51.57 151.092 51.57H152.983C153.19 51.57 153.303 51.632 153.324 51.756C153.365 51.8593 153.303 51.9937 153.138 52.159L148.24 57.15C148.178 57.212 148.137 57.2843 148.116 57.367C148.116 57.4497 148.147 57.553 148.209 57.677L154.037 67.504ZM166.166 55.197C165.753 54.577 165.174 54.0707 164.43 53.678C163.686 53.2853 162.797 53.089 161.764 53.089C160.648 53.089 159.718 53.3267 158.974 53.802C158.251 54.2773 157.889 54.918 157.889 55.724C157.889 56.158 158.054 56.5713 158.385 56.964C158.716 57.336 159.387 57.6873 160.4 58.018L164.337 59.196C165.763 59.5887 166.786 60.157 167.406 60.901C168.047 61.645 168.367 62.5027 168.367 63.474C168.367 64.4453 168.078 65.2927 167.499 66.016C166.92 66.7393 166.125 67.3077 165.112 67.721C164.099 68.1137 162.952 68.31 161.671 68.31C160.038 68.31 158.612 67.9897 157.393 67.349C156.174 66.6877 155.306 65.8713 154.789 64.9C154.727 64.7967 154.696 64.7037 154.696 64.621C154.696 64.5383 154.748 64.466 154.851 64.404L156.06 63.722C156.163 63.66 156.256 63.6393 156.339 63.66C156.422 63.66 156.484 63.691 156.525 63.753C156.876 64.2903 157.279 64.7553 157.734 65.148C158.209 65.5407 158.767 65.8507 159.408 66.078C160.069 66.3053 160.834 66.419 161.702 66.419C162.487 66.3983 163.2 66.2847 163.841 66.078C164.482 65.8713 164.988 65.5717 165.36 65.179C165.732 64.7657 165.918 64.2903 165.918 63.753C165.918 63.195 165.691 62.7197 165.236 62.327C164.781 61.9137 163.996 61.552 162.88 61.242L159.687 60.343C158.137 59.9297 157.042 59.3717 156.401 58.669C155.781 57.9663 155.461 57.1397 155.44 56.189C155.44 55.197 155.709 54.3393 156.246 53.616C156.783 52.872 157.527 52.2933 158.478 51.88C159.449 51.4667 160.555 51.26 161.795 51.26C163.18 51.26 164.409 51.5287 165.484 52.066C166.579 52.5827 167.406 53.275 167.964 54.143C168.026 54.2257 168.057 54.3083 168.057 54.391C168.057 54.453 168.016 54.515 167.933 54.577L166.631 55.29C166.548 55.3313 166.466 55.352 166.383 55.352C166.321 55.3313 166.249 55.2797 166.166 55.197Z" fill="#88B7FF"/>
<rect y="7" width="60.2207" height="60.2207" rx="7" fill="url(#paint0_linear_2059_274)"/>
<mask id="mask0_2059_274" style="mask-type:luminance" maskUnits="userSpaceOnUse" x="11" y="20" width="39" height="34">
<path d="M11.7666 20.8594H49.2404V53.5005H11.7666V20.8594Z" fill="white"/>
</mask>
<g mask="url(#mask0_2059_274)">
<path fill-rule="evenodd" clip-rule="evenodd" d="M36.489 36.6502C39.7029 36.6502 41.9733 35.1631 41.9733 31.949C41.9733 28.5941 39.5624 27.3084 36.3481 27.3084H30.6626C29.8789 27.3084 29.2563 27.9511 29.2563 28.7143V35.2234C29.2563 36.0072 29.899 36.6299 30.6626 36.6299H36.489V36.6502ZM21.7026 38.1768C22.4256 38.1768 23.1491 38.1768 23.8721 38.1768C24.9168 38.1768 24.9168 39.7638 23.8721 39.7638H18.7289C17.6844 39.7638 17.6844 41.3508 18.7289 41.3508H23.8721C24.9168 41.3508 24.9168 42.9382 23.8721 42.9382H19.352C18.3071 42.9382 18.3071 44.5253 19.352 44.5253C20.5172 44.5253 21.662 44.5253 22.8277 44.5253C23.8721 44.5253 23.8721 46.1123 22.8277 46.1123H20.5973C19.5528 46.1123 19.5528 47.6993 20.5973 47.6993H22.1043C23.2292 47.6993 23.169 49.2867 22.1442 49.2867H17.4436C16.3987 49.2867 16.3987 50.8735 17.4436 50.8735H23.4903C24.5354 50.8735 24.5354 52.4605 23.4903 52.4605H22.1043C21.5819 52.4605 21.2204 52.963 21.3609 53.4451H27.8497C28.6336 53.4451 29.2563 52.8022 29.2563 52.0388V44.4648C29.2563 43.6816 29.899 43.0585 30.6626 43.0585H34.1181C34.6002 43.0585 35.0222 43.2795 35.2832 43.6816L41.4106 52.8423C41.6718 53.2444 42.0935 53.465 42.5757 53.465H47.4979C48.6433 53.465 49.3059 52.1994 48.663 51.2553L43.2186 43.1592C42.7365 42.4561 42.9777 41.5114 43.7211 41.1099C47.3371 39.2015 49.2258 36.0474 49.2258 31.6878C49.2258 24.4553 44.2032 20.8594 36.9711 20.8594H18.9099C17.8654 20.8594 17.8654 22.4464 18.9099 22.4464H24.4948C25.3588 22.5265 25.3989 24.0132 24.3543 24.0132C22.1847 24.0132 20.0147 24.0132 17.8654 24.0132C16.8206 24.0132 16.8206 25.6006 17.8654 25.6006H22.5665C22.9281 25.6609 23.2292 25.9824 23.2292 26.384C23.2292 26.7856 22.9078 27.107 22.6264 27.1476H20.0147C18.9702 27.1476 18.9702 28.7346 20.0147 28.7346H23.3099C24.1734 28.8147 24.2138 30.3017 23.169 30.3017H22.526C21.4816 30.3017 21.4816 31.8887 22.526 31.8887H25.4591C26.5042 31.8887 26.5042 33.4758 25.4591 33.4758H20.2561C19.2111 33.4758 19.2111 35.0628 20.2561 35.0628H22.3253C23.3697 35.0628 23.3697 36.6502 22.3253 36.6502C21.6022 36.6502 22.4058 36.6502 21.6823 36.6502C20.6576 36.5898 20.6576 38.1768 21.7026 38.1768ZM12.6421 24.0132H15.6352C16.6801 24.0132 16.6801 25.6006 15.6352 25.6006H12.6421C11.5972 25.5804 11.5972 24.0132 12.6421 24.0132ZM12.8028 49.2263H14.47C15.5149 49.2263 15.5149 50.8133 14.47 50.8133H12.8028C11.7579 50.8133 11.7579 49.2263 12.8028 49.2263Z" fill="white"/>
</g>
<path fill-rule="evenodd" clip-rule="evenodd" d="M12.1203 42.9238H17.0023C18.0468 42.9238 18.0468 44.5108 17.0023 44.5108H12.1203C11.0758 44.491 11.0758 42.9238 12.1203 42.9238Z" fill="white"/>
<mask id="mask1_2059_274" style="mask-type:luminance" maskUnits="userSpaceOnUse" x="11" y="36" width="9" height="3">
<path d="M11.0557 36.3613H19.2193V38.0893H11.0557V36.3613Z" fill="white"/>
</mask>
<g mask="url(#mask1_2059_274)">
<path fill-rule="evenodd" clip-rule="evenodd" d="M19.1923 37.2407C19.1923 36.7987 18.8307 36.457 18.4085 36.457H11.8395C11.3974 36.457 11.0557 36.819 11.0557 37.2407C11.0557 37.6825 11.4176 38.0242 11.8395 38.0242H18.3886C18.8307 38.0242 19.1923 37.6825 19.1923 37.2407Z" fill="white"/>
</g>
<path fill-rule="evenodd" clip-rule="evenodd" d="M21.1015 31.0686C21.1015 30.627 20.74 30.2852 20.3181 30.2852H19.5748C19.1327 30.2852 18.791 30.6467 18.791 31.0686C18.791 31.5106 19.1529 31.8525 19.5748 31.8525H20.3181C20.74 31.8525 21.1015 31.5106 21.1015 31.0686Z" fill="white"/>
<path fill-rule="evenodd" clip-rule="evenodd" d="M16.8808 40.5495C16.8808 40.1073 16.5193 39.7656 16.0975 39.7656H14.1891C13.747 39.7656 13.4053 40.1271 13.4053 40.5495C13.4053 40.9911 13.7668 41.3328 14.1891 41.3328H16.0975C16.5193 41.3328 16.8808 40.9712 16.8808 40.5495Z" fill="white"/>
<path fill-rule="evenodd" clip-rule="evenodd" d="M17.7265 31.0686C17.7265 30.627 17.365 30.2852 16.9432 30.2852H15.0348C14.5927 30.2852 14.251 30.6467 14.251 31.0686C14.251 31.5106 14.6129 31.8525 15.0348 31.8525H16.9432C17.365 31.8525 17.7265 31.5106 17.7265 31.0686Z" fill="white"/>
<defs>
<linearGradient id="paint0_linear_2059_274" x1="0" y1="37.1104" x2="60.2207" y2="37.1104" gradientUnits="userSpaceOnUse">
<stop stop-color="#015EEA"/>
<stop offset="1" stop-color="#00C0FA"/>
</linearGradient>
</defs>
</svg>
